<svg xmlns="http://www.w3.org/2000/svg" width="15" height="15" viewBox="0 0 15 15">
    <path fill="#9B9B9B" fill-rule="evenodd" d="M14.883 12.617c.182.182.182.365 0 .547l-1.68 1.719a.422.422 0 0 1-.312.117.375.375 0 0 1-.274-.117l-3.281-3.36c-.99.6-2.031.899-3.125.899-1.693 0-3.151-.606-4.375-1.817C.612 9.395 0 7.93 0 6.211c0-1.719.612-3.184 1.836-4.395C3.06.606 4.518 0 6.21 0s3.144.605 4.355 1.816c1.211 1.211 1.817 2.676 1.817 4.395 0 1.094-.274 2.11-.82 3.047l3.32 3.36zM6.21 2.422c-1.042 0-1.934.371-2.676 1.113-.742.742-1.113 1.634-1.113 2.676 0 1.042.371 1.934 1.113 2.676C4.277 9.629 5.17 10 6.211 10a3.585 3.585 0 0 0 2.656-1.113A3.681 3.681 0 0 0 9.961 6.21a3.681 3.681 0 0 0-1.094-2.676 3.585 3.585 0 0 0-2.656-1.113z"/>
</svg>
