<svg xmlns="http://www.w3.org/2000/svg" width="9" height="9" viewBox="0 0 9 9">
    <g fill="#FFF" fill-rule="nonzero">
        <path d="M.198 5.991H.196l.002.004c0 .009.002.017.003.026v.004L.55 8.284a.502.502 0 1 0 .993-.153l-.054-.351a4.334 4.334 0 0 0 3.423.942 4.334 4.334 0 0 0 3.545-3.213l-1.37-.377a2.91 2.91 0 0 1-2.39 2.183 2.91 2.91 0 0 1-2.388-.706l.397.038c.254.025.482-.18.51-.455.026-.277-.159-.52-.413-.545L.707 5.444c-.227-.022-.432.14-.493.371l-.01.05C.204 5.877.2 5.888.199 5.9v.01c-.001.015 0 .03 0 .047v.034zM8.302 2.863h.002l-.002-.004-.003-.025V2.83L7.95.57a.502.502 0 0 0-.993.153l.054.352A4.334 4.334 0 0 0 3.589.133 4.333 4.333 0 0 0 .044 3.345l1.37.377c.093-.37.256-.718.48-1.023a2.911 2.911 0 0 1 1.911-1.16 2.911 2.911 0 0 1 2.387.706l-.397-.038c-.254-.025-.482.18-.509.455-.027.277.158.52.412.545l2.095.203c.227.022.432-.14.493-.371.004-.016.006-.033.009-.05.002-.012.006-.023.007-.035v-.01-.046-.035z"/>
    </g>
</svg>
