<svg xmlns="http://www.w3.org/2000/svg" width="18" height="18" viewBox="0 0 18 18">
    <g fill="#9173C7" fill-rule="nonzero">
        <path d="M.786 12.27H.783c0 .003.001.005.003.007.001.019.004.036.007.054v.008l.725 4.653c.088.565.623.953 1.195.865.571-.086.963-.615.876-1.18l-.113-.723c.131.107.264.213.401.313a9.117 9.117 0 0 0 6.734 1.628 9.051 9.051 0 0 0 5.927-3.555A8.892 8.892 0 0 0 18 11.277l-2.857-.777a5.995 5.995 0 0 1-.998 2.107 6.077 6.077 0 0 1-3.985 2.39 6.12 6.12 0 0 1-4.976-1.455l.828.08c.53.05 1.005-.37 1.061-.94.056-.568-.329-1.07-.859-1.12l-4.367-.419c-.474-.045-.901.287-1.027.764-.009.034-.014.068-.02.103-.004.024-.01.047-.013.071v.021c-.003.032-.001.064 0 .096-.001.025-.003.049-.001.072zM17.215 5.73h.002c0-.003-.001-.005-.003-.007-.001-.018-.005-.036-.007-.054v-.008l-.725-4.653a1.046 1.046 0 0 0-1.195-.865 1.036 1.036 0 0 0-.875 1.18l.112.723a9.408 9.408 0 0 0-.401-.312A9.116 9.116 0 0 0 7.389.105 9.05 9.05 0 0 0 1.462 3.66 8.881 8.881 0 0 0 0 6.723l2.857.777a5.995 5.995 0 0 1 .997-2.107 6.08 6.08 0 0 1 3.986-2.39 6.124 6.124 0 0 1 4.976 1.455l-.828-.08c-.53-.05-1.005.37-1.06.94-.057.568.328 1.07.858 1.12l4.367.419c.474.045.901-.287 1.027-.764.009-.034.014-.068.02-.103.004-.024.011-.047.013-.072v-.02c.003-.032.002-.064 0-.097.001-.023.003-.048.002-.071z"/>
    </g>
</svg>
